<svg xmlns="http://www.w3.org/2000/svg" viewBox="0 0 32 32">
  <rect width="32" height="32" rx="7" fill="#064e3b"/>
  <text x="4" y="25"
    font-family="-apple-system,BlinkMacSystemFont,'Segoe UI',system-ui,sans-serif"
    font-weight="900" font-size="26" fill="#f5f5f4">C</text>
  <g transform="translate(23 6) scale(0.08)" fill="#f5f5f4">
    <path d="M0,-72 C 12,-22 26,-12 72,0 C 26,12 12,22 0,72 C -12,22 -26,12 -72,0 C -26,-12 -12,-22 0,-72 Z"/>
    <g transform="translate(78 -60) scale(.55)">
      <path d="M0,-72 C 12,-22 26,-12 72,0 C 26,12 12,22 0,72 C -12,22 -26,12 -72,0 C -26,-12 -12,-22 0,-72 Z"/>
    </g>
    <g transform="translate(86 60) scale(.4)">
      <path d="M0,-72 C 12,-22 26,-12 72,0 C 26,12 12,22 0,72 C -12,22 -26,12 -72,0 C -26,-12 -12,-22 0,-72 Z"/>
    </g>
  </g>
</svg>
